<svg width="24" height="45" viewBox="0 0 24 45" fill="none" xmlns="http://www.w3.org/2000/svg">
<g clip-path="url(#clip0_111_10)">
<path d="M0 3.91688V45.0019L12.0849 33.2644L24.168 45.0019V3.91688C24.1578 2.87478 23.7431 1.87886 23.0141 1.14546C22.2851 0.412069 21.3006 0.000442295 20.2745 0L20.1323 0.001875H20.1397H4.03015L3.89538 0C2.86958 0.000437128 1.88535 0.411806 1.15638 1.1448C0.427411 1.87779 0.0125416 2.87323 0.00184615 3.915L0 3.91688Z" fill="#636363"/>
<path d="M2.18188 5.19507C2.18188 3.53822 3.52503 2.19507 5.18188 2.19507H18.8182C20.4751 2.19507 21.8182 3.53821 21.8182 5.19507V39.5121L12.0001 30.7317L2.18188 39.5121V5.19507Z" fill="white"/>
</g>
<defs>
<clipPath id="clip0_111_10">
<rect width="24" height="45" fill="white"/>
</clipPath>
</defs>
</svg>
